<svg xmlns="http://www.w3.org/2000/svg" viewBox="0 0 369.93 95.99"><defs><style>.a{fill:#6989c6;}.b{fill:#f5bf17;}</style></defs><title>anitoa-logo-color</title><path class="a" d="M49.12,94.43a61.63,61.63,0,0,1-2.4-14.16c-4.82,10.9-12,15.57-23.64,15.57C9.49,95.84,0,87.07,0,74.47c0-10.9,6.94-18.41,20.1-21.66C27.46,51,34.26,50.4,46.72,50.4V45.16c0-7.22-5-10.76-14.87-10.76-9.62,0-14.44,3.26-16.14,10.76l-13.44-2C3.4,36.38,6,32.42,11.47,28.74c5.8-4,12.46-5.52,22.37-5.52,12,0,19.39,2.4,23.92,7.64,3.54,4,4.39,7.79,4.39,18V80.27a53.12,53.12,0,0,0,2.12,14.16Zm-2.4-35.54c-20.1,0-30.58,5-30.58,14.59C16.14,80,20.81,84,28.46,84c10.9,0,18.26-7.5,18.26-18.69Z"/><path class="a" d="M123,94.43V50.82C123,42.33,118.78,37,112.12,37c-5.23,0-10.19,3.4-12.88,8.64-1.7,3.39-2.55,7.64-2.55,13V94.43H81V24.63h14.3V40.77c5.8-12.6,11.89-17.55,21.38-17.55,8.06,0,16,4.24,19.11,10.33,2.12,4.11,3,8.64,3,15.86v45Z"/><path class="a" d="M157.57,16.42V0h15.71V16.42Zm0,78V24.63h15.71v69.8Z"/><path class="a" d="M224.53,94.43a59.48,59.48,0,0,1-11,1.56c-6,0-11.47-2.13-14.87-5.53-3.68-3.68-4.81-7.92-4.81-17.41V37h-8.63V24.63h9.62l1.42-18.12L209.1,5.38V24.63h14.16V37H209.1v34c0,8.77,2.55,11.32,11.47,11.32.56,0,2.26,0,4-.14Z"/><path class="b" d="M289.94,37.52c4.1,6.65,5.8,13,5.8,22.08,0,21.38-13.59,36.24-33.12,36.24-10.76,0-19.26-4.38-24.92-12.88a40.76,40.76,0,0,1-6.94-23.64c0-21.24,13.45-36.1,32.71-36.1C275.22,23.22,283.71,27.75,289.94,37.52ZM247.47,59.46c0,15,5.66,23.5,15.71,23.5S279,74.47,279,59.18c0-15-5.52-23.08-15.57-23.08C253.27,36.1,247.47,44.45,247.47,59.46Z"/><path class="a" d="M354.78,94.43a61.62,61.62,0,0,1-2.41-14.16c-4.81,10.9-12,15.57-23.64,15.57-13.59,0-23.07-8.77-23.07-21.37,0-10.9,6.93-18.41,20.1-21.66,7.36-1.84,14.16-2.41,26.61-2.41V45.16c0-7.22-4.95-10.76-14.86-10.76-9.63,0-14.44,3.26-16.14,10.76l-13.45-2c1.13-6.8,3.68-10.76,9.2-14.44,5.81-4,12.46-5.52,22.37-5.52,12,0,19.4,2.4,23.93,7.64,3.54,4,4.38,7.79,4.38,18V80.27a52.76,52.76,0,0,0,2.13,14.16Zm-2.41-35.54c-20.1,0-30.58,5-30.58,14.59C321.79,80,326.47,84,334.11,84c10.9,0,18.26-7.5,18.26-18.69Z"/></svg>